<svg width="17" height="16" viewBox="0 0 17 16" fill="none" xmlns="http://www.w3.org/2000/svg">
<path d="M2.73779 12.2671C2.73804 12.8382 3.20167 13.3003 3.77197 13.3003H12.3179C12.8881 13.3002 13.3518 12.8382 13.3521 12.2671V11.2329H2.73779V12.2671ZM2.70361 2.69971C2.13331 2.69971 1.66964 3.1617 1.66943 3.73291V10.1333C1.66943 10.7047 2.13318 11.1665 2.70361 11.1665H13.3862C13.9565 11.1664 14.4204 10.7047 14.4204 10.1333V3.73291C14.4202 3.16174 13.9564 2.69982 13.3862 2.69971H2.70361ZM8.04443 4.76709C8.06398 4.76709 8.07861 4.78259 8.07861 4.80029V6.8999H10.1812C10.2006 6.8999 10.2152 6.91548 10.2153 6.93311C10.2153 6.95081 10.2007 6.96631 10.1812 6.96631H8.07861V9.06689C8.07847 9.08449 8.06389 9.1001 8.04443 9.1001C8.02513 9.09994 8.01039 9.0844 8.01025 9.06689V6.96631H5.90869C5.88914 6.96631 5.87451 6.95081 5.87451 6.93311C5.87462 6.91548 5.88922 6.8999 5.90869 6.8999H8.01025V4.80029C8.01025 4.78268 8.02504 4.76725 8.04443 4.76709ZM2.66943 11.2886L2.33545 11.1704C1.90653 11.0189 1.60107 10.6109 1.60107 10.1333V3.73291C1.60129 3.12627 2.09421 2.6333 2.70361 2.6333H13.3862C13.9955 2.63341 14.4886 3.12635 14.4888 3.73291V10.1333C14.4888 10.5512 14.2545 10.9159 13.9087 11.1021L13.7534 11.1704L13.4204 11.2886V12.2671C13.4202 12.8736 12.9272 13.3666 12.3179 13.3667H3.77197C3.1626 13.3667 2.66968 12.8737 2.66943 12.2671V11.2886Z" fill="#9E9C94" stroke="#9E9C94"/>
</svg>
