<svg width="16" height="16" viewBox="0 0 16 16" fill="none" xmlns="http://www.w3.org/2000/svg">
<g clip-path="url(#clip0_25_1078)">
<path d="M10 1.33337V2.66671M10 13.3334V14.6667M1.33337 10H2.66671M1.33337 6.00004H2.66671M13.3334 10H14.6667M13.3334 6.00004H14.6667M6.00004 1.33337V2.66671M6.00004 13.3334V14.6667M4.00004 2.66671H12C12.7364 2.66671 13.3334 3.26366 13.3334 4.00004V12C13.3334 12.7364 12.7364 13.3334 12 13.3334H4.00004C3.26366 13.3334 2.66671 12.7364 2.66671 12V4.00004C2.66671 3.26366 3.26366 2.66671 4.00004 2.66671ZM6.00004 6.00004H10V10H6.00004V6.00004Z" stroke="#09090B" stroke-linecap="round" stroke-linejoin="round"/>
</g>
<defs>
<clipPath id="clip0_25_1078">
<rect width="16" height="16" fill="white"/>
</clipPath>
</defs>
</svg>
