<svg width="16" height="16" viewBox="0 0 16 16" fill="none" xmlns="http://www.w3.org/2000/svg">
<path d="M14 8.00004V12.6667C14 13.0203 13.8595 13.3595 13.6095 13.6095C13.3594 13.8596 13.0203 14 12.6667 14H3.33333C2.97971 14 2.64057 13.8596 2.39052 13.6095C2.14048 13.3595 2 13.0203 2 12.6667V3.33337C2 2.97975 2.14048 2.64061 2.39052 2.39056C2.64057 2.14052 2.97971 2.00004 3.33333 2.00004H8M10.6667 3.33337H14.6667M12.6667 1.33337V5.33337M14 10L11.9427 7.94271C11.6926 7.69275 11.3536 7.55233 11 7.55233C10.6464 7.55233 10.3074 7.69275 10.0573 7.94271L4 14M7.33333 6.00004C7.33333 6.73642 6.73638 7.33337 6 7.33337C5.26362 7.33337 4.66667 6.73642 4.66667 6.00004C4.66667 5.26366 5.26362 4.66671 6 4.66671C6.73638 4.66671 7.33333 5.26366 7.33333 6.00004Z" stroke="#09090B" stroke-linecap="round" stroke-linejoin="round"/>
</svg>
