<svg width="17" height="16" viewBox="0 0 17 16" fill="none" xmlns="http://www.w3.org/2000/svg">
<path d="M13.4456 4.66675H7.43668M9.43966 11.3334H3.43072M9.43966 11.3334C9.43966 12.438 10.3364 13.3334 11.4426 13.3334C12.5489 13.3334 13.4456 12.438 13.4456 11.3334C13.4456 10.2288 12.5489 9.33341 11.4426 9.33341C10.3364 9.33341 9.43966 10.2288 9.43966 11.3334ZM6.76902 4.66675C6.76902 5.77132 5.87226 6.66675 4.76604 6.66675C3.65983 6.66675 2.76306 5.77132 2.76306 4.66675C2.76306 3.56218 3.65983 2.66675 4.76604 2.66675C5.87226 2.66675 6.76902 3.56218 6.76902 4.66675Z" stroke="#9E9C94" stroke-linecap="round" stroke-linejoin="round"/>
</svg>
