<svg width="30" height="30" viewBox="0 0 30 30" fill="none" xmlns="http://www.w3.org/2000/svg">
<path d="M15 16.5001C15.8284 16.5001 16.5 15.8285 16.5 15.0001C16.5 14.1716 15.8284 13.5001 15 13.5001C14.1715 13.5001 13.5 14.1716 13.5 15.0001C13.5 15.8285 14.1715 16.5001 15 16.5001Z" stroke="#5759D9" stroke-width="3" stroke-linecap="round" stroke-linejoin="round"/>
<path d="M27.3 27.3001C30.36 24.2551 27.33 16.2601 20.55 9.45007C13.74 2.67007 5.74495 -0.359927 2.69995 2.70007C-0.360049 5.74507 2.66995 13.7401 9.44995 20.5501C16.26 27.3301 24.255 30.3601 27.3 27.3001Z" stroke="#5759D9" stroke-width="3" stroke-linecap="round" stroke-linejoin="round"/>
<path d="M20.55 20.5501C27.33 13.7401 30.36 5.74507 27.3 2.70007C24.255 -0.359927 16.26 2.67007 9.44995 9.45007C2.66995 16.2601 -0.360049 24.2551 2.69995 27.3001C5.74495 30.3601 13.74 27.3301 20.55 20.5501Z" stroke="#5759D9" stroke-width="3" stroke-linecap="round" stroke-linejoin="round"/>
</svg>
