<svg width="16" height="16" viewBox="0 0 16 16" fill="none" xmlns="http://www.w3.org/2000/svg">
<path d="M12 11.3201H8.00671C7.27337 11.3201 6.70671 11.9468 6.35337 12.5868C6.07368 13.1116 5.62657 13.5279 5.08312 13.7694C4.53968 14.011 3.93108 14.0639 3.35409 13.9199C2.77709 13.7758 2.26481 13.443 1.89867 12.9744C1.53254 12.5057 1.33356 11.9282 1.33337 11.3335C1.34004 10.8668 1.46671 10.4001 1.71337 10.0001M4.00004 11.3335L6.08671 7.48012C6.44004 6.83345 6.15337 6.02679 5.75337 5.41345C5.56458 5.11152 5.43818 4.77483 5.38161 4.42326C5.32505 4.07168 5.33947 3.71234 5.42403 3.36643C5.50859 3.02052 5.66158 2.69505 5.87396 2.40922C6.08635 2.12339 6.35383 1.88299 6.66062 1.70221C6.96742 1.52143 7.30731 1.40393 7.66025 1.35663C8.01319 1.30934 8.37203 1.33321 8.7156 1.42684C9.05917 1.52048 9.3805 1.68197 9.66064 1.9018C9.94078 2.12163 10.1741 2.39534 10.3467 2.70679M8.00004 4.00012L10.0867 7.82012C10.44 8.46679 11.2667 8.66679 12 8.66679C12.7073 8.66679 13.3856 8.94774 13.8857 9.44783C14.3858 9.94793 14.6667 10.6262 14.6667 11.3335C14.6667 12.0407 14.3858 12.719 13.8857 13.2191C13.3856 13.7192 12.7073 14.0001 12 14.0001" stroke="#9E9C94" stroke-linecap="round" stroke-linejoin="round"/>
</svg>
